G04 #@! TF.FileFunction,Profile,NP*
%FSLAX46Y46*%
G04 Gerber Fmt 4.6, Leading zero omitted, Abs format (unit mm)*
G04 Created by KiCad (PCBNEW 4.0.7) date Thu Oct 19 14:43:40 2017*
%MOMM*%
%LPD*%
G01*
G04 APERTURE LIST*
%ADD10C,0.100000*%
%ADD11C,0.010000*%
G04 APERTURE END LIST*
D10*
D11*
X196875000Y-158323669D02*
X215875000Y-158323669D01*
X196875000Y-152323669D02*
X196875000Y-158323669D01*
X196875000Y-152323669D02*
X215875000Y-152323669D01*
X215875000Y-152323669D02*
X215875000Y-158323669D01*
X220125000Y-173527418D02*
X222875000Y-173527418D01*
X224374998Y-172027429D02*
G75*
G02X222875000Y-173527418I-1499999J10D01*
G01*
X224375000Y-151106257D02*
X224375000Y-172027418D01*
X224174067Y-150356308D02*
G75*
G02X224375000Y-151106257I-1299067J-749949D01*
G01*
X207674038Y-121777418D02*
X224174038Y-150356257D01*
X205075964Y-121777417D02*
G75*
G02X207674038Y-121777418I1299037J-749998D01*
G01*
X188575962Y-150356257D02*
X205075962Y-121777418D01*
X188375000Y-151106313D02*
G75*
G02X188575962Y-150356257I1500000J56D01*
G01*
X188375000Y-172027418D02*
X188375000Y-151106257D01*
X189875010Y-173527420D02*
G75*
G02X188375000Y-172027418I-9J1500001D01*
G01*
X192625000Y-173527418D02*
X189875000Y-173527418D01*
X194124999Y-172027424D02*
G75*
G02X192625000Y-173527418I-1500000J6D01*
G01*
X194125000Y-172027418D02*
X194125000Y-167867164D01*
X194125000Y-167867161D02*
G75*
G02X194325962Y-167117164I1499999J-3D01*
G01*
X196083125Y-164073669D02*
X194325962Y-167117164D01*
X196083128Y-164073663D02*
G75*
G02X197382163Y-163323669I1299035J-750006D01*
G01*
X201120115Y-163323669D02*
X197382163Y-163323669D01*
X201120113Y-163323670D02*
G75*
G02X202720115Y-162523669I1000001J1D01*
G01*
X203375000Y-160323669D02*
X202720115Y-162523669D01*
X203375000Y-160323669D02*
X209375000Y-160323669D01*
X209375000Y-160323669D02*
X210030115Y-162523669D01*
X210030115Y-162523669D02*
G75*
G02X211630115Y-163323669I600000J-800000D01*
G01*
X211630115Y-163323669D02*
X215367837Y-163323669D01*
X215367839Y-163323669D02*
G75*
G02X216666875Y-164073669I-2J-1500000D01*
G01*
X216666875Y-164073669D02*
X218424038Y-167117164D01*
X218424041Y-167117169D02*
G75*
G02X218625000Y-167867164I-1299041J-749995D01*
G01*
X218625000Y-172027418D02*
X218625000Y-167867164D01*
X220125000Y-173527419D02*
G75*
G02X218625000Y-172027418I1J1500001D01*
G01*
M02*
