M48
;DRILL file {KiCad 4.0.7} date Thu Oct 19 14:40:45 2017
;FORMAT={-:-/ absolute / metric / decimal}
FMAT,2
METRIC,TZ
T1C0.200
T2C0.300
T3C0.500
T4C0.600
%
G90
G05
M71
T1
X189.175Y-160.893
X189.407Y-159.477
X189.946Y-158.775
X190.479Y-158.919
X191.275Y-156.974
X192.44Y-158.151
X192.629Y-166.877
X193.626Y-146.313
X193.874Y-151.241
X194.264Y-144.648
X194.331Y-145.602
X195.535Y-159.399
X195.805Y-143.29
X197.349Y-147.899
X197.877Y-150.026
X200.068Y-138.763
X200.368Y-139.226
X200.559Y-139.963
X200.876Y-144.088
X201.237Y-139.991
X201.392Y-144.62
X201.805Y-145.001
X201.822Y-143.832
X202.203Y-135.282
X202.524Y-142.63
X203.333Y-146.773
X203.778Y-147.109
X203.868Y-143.934
X203.882Y-143.23
X204.188Y-141.481
X204.258Y-146.836
X204.438Y-130.868
X204.812Y-146.719
X204.898Y-131.175
X204.926Y-132.368
X205.173Y-142.092
X205.329Y-140.867
X205.483Y-132.368
X205.717Y-142.185
X206.029Y-141.729
X206.04Y-132.368
X206.571Y-141.836
X206.593Y-132.368
X206.854Y-145.627
X207.666Y-132.435
X207.935Y-142.648
X208.073Y-131.876
X208.581Y-140.817
X209.39Y-144.462
X209.446Y-143.377
X209.518Y-143.925
X209.863Y-143.014
X210.359Y-146.211
X210.562Y-136.702
X210.628Y-139.07
X210.663Y-140.563
X210.663Y-140.563
X210.714Y-145.78
X210.816Y-133.654
X211.165Y-145.327
X211.575Y-144.9
X213.72Y-133.509
X214.27Y-134.461
X215.625Y-136.684
X216.175Y-137.636
X217.53Y-139.859
X217.729Y-151.596
X218.08Y-140.811
T2
X188.896Y-156.854
X189.133Y-162.263
X189.669Y-162.861
X189.734Y-164.185
X189.836Y-154.466
X190.166Y-157.17
X190.217Y-170.849
X190.849Y-170.221
X190.852Y-151.622
X190.988Y-160.918
X191.073Y-154.258
X191.324Y-155.686
X191.406Y-149.405
X191.715Y-172.313
X191.743Y-158.295
X191.759Y-165.375
X191.988Y-148.732
X192.093Y-151.62
X192.33Y-165.94
X192.363Y-156.053
X192.852Y-157.183
X192.894Y-151.689
X193.015Y-163.41
X193.036Y-170.941
X193.283Y-164.997
X193.516Y-158.932
X193.821Y-163.406
X194.247Y-147.241
X194.425Y-154.642
X194.584Y-143.209
X194.636Y-141.766
X195.204Y-162.177
X195.635Y-147.769
X195.65Y-144.111
X196.007Y-149.65
X196.129Y-161.135
X196.186Y-139.252
X196.186Y-140.776
X196.186Y-141.538
X196.188Y-140.014
X196.338Y-138.541
X196.499Y-150.285
X196.821Y-137.423
X197.506Y-136.407
X197.572Y-139.954
X197.866Y-146.299
X198.032Y-147.185
X198.167Y-135.315
X198.272Y-139.954
X198.818Y-151.197
X198.903Y-134.197
X198.972Y-139.954
X199.153Y-143.144
X199.597Y-142.429
X199.721Y-143.711
X199.839Y-151.185
X199.988Y-138.064
X200.617Y-148.373
X201.088Y-141.538
X201.14Y-148.983
X201.367Y-130.707
X202.143Y-133.003
X202.557Y-146.548
X202.637Y-131.937
X202.84Y-139.903
X202.902Y-140.904
X202.954Y-141.71
X203.716Y-144.621
X204.444Y-134.594
X204.444Y-137.169
X204.466Y-151.469
X204.875Y-144.475
X204.95Y-145.634
X205.731Y-138.456
X205.734Y-135.588
X205.888Y-149.224
X206.555Y-130.927
X206.705Y-148.089
X206.93Y-147.227
X207.046Y-148.816
X207.875Y-144.475
X208.348Y-150.941
X208.505Y-137.321
X210.321Y-131.49
X210.825Y-130.253
X210.968Y-148.883
X211.07Y-137.275
X211.146Y-135.991
X211.553Y-131.073
X212.289Y-131.886
X212.295Y-132.82
X212.296Y-138.031
X212.492Y-159.419
X212.721Y-144.84
X213.305Y-136.422
X213.407Y-160.435
X213.737Y-150.148
X213.856Y-145.739
X213.966Y-159.369
X213.992Y-139.616
X214.524Y-142.29
X214.601Y-146.846
X215.083Y-144.256
X215.205Y-140.801
X215.21Y-159.445
X216.226Y-147.304
X216.404Y-149.31
X216.429Y-144.052
X217.305Y-143.57
X217.369Y-161.909
X217.471Y-157.87
X218.243Y-145.053
X218.258Y-161.604
X218.868Y-149.386
X218.868Y-150.098
X218.868Y-150.885
X218.868Y-151.698
X218.893Y-152.333
X219.046Y-161.07
X219.528Y-159.242
X219.579Y-160.232
X221.281Y-149.361
X221.509Y-150.225
X221.738Y-148.599
X221.941Y-151.241
X222.17Y-152.307
X222.195Y-149.361
X222.195Y-153.298
X222.703Y-150.225
X223.008Y-151.241
X223.211Y-152.358
X223.237Y-153.273
T3
X217.83Y-154.94
X217.83Y-155.94
T4
X205.105Y-123.825
X206.375Y-124.46
X207.645Y-123.825
T0
M30
