G04 #@! TF.FileFunction,Legend,Bot*
%FSLAX46Y46*%
G04 Gerber Fmt 4.6, Leading zero omitted, Abs format (unit mm)*
G04 Created by KiCad (PCBNEW 4.0.7) date Thu Oct 19 14:43:40 2017*
%MOMM*%
%LPD*%
G01*
G04 APERTURE LIST*
%ADD10C,0.100000*%
%ADD11C,0.150000*%
%ADD12C,0.254000*%
%ADD13C,0.120000*%
%ADD14C,0.127000*%
G04 APERTURE END LIST*
D10*
D11*
X202750000Y-132900000D02*
X202750000Y-133425000D01*
X210000000Y-140150000D02*
X210000000Y-139625000D01*
X202750000Y-140150000D02*
X202750000Y-139625000D01*
X210000000Y-132900000D02*
X209475000Y-132900000D01*
X210000000Y-140150000D02*
X209475000Y-140150000D01*
X202750000Y-140150000D02*
X203275000Y-140150000D01*
X202750000Y-132900000D02*
X203275000Y-132900000D01*
D12*
X212141400Y-148365600D02*
G75*
G03X212141400Y-148365600I-125000J0D01*
G01*
D13*
X201423600Y-143230000D02*
X202123600Y-143230000D01*
X202123600Y-142030000D02*
X201423600Y-142030000D01*
X217705000Y-144169800D02*
X218405000Y-144169800D01*
X218405000Y-142969800D02*
X217705000Y-142969800D01*
X218669711Y-140932724D02*
X217890289Y-141382724D01*
X217890289Y-141382724D02*
X217165289Y-140126987D01*
X218669711Y-140932724D02*
X217944711Y-139676987D01*
X214859711Y-134582724D02*
X214080289Y-135032724D01*
X214080289Y-135032724D02*
X213355289Y-133776987D01*
X214859711Y-134582724D02*
X214134711Y-133326987D01*
X216764711Y-137757724D02*
X215985289Y-138207724D01*
X215985289Y-138207724D02*
X215260289Y-136951987D01*
X216764711Y-137757724D02*
X216039711Y-136501987D01*
D11*
X192640600Y-158047800D02*
G75*
G03X192640600Y-158047800I-900000J0D01*
G01*
X190640600Y-159247800D02*
X192840600Y-159247800D01*
X192840600Y-159247800D02*
X192840600Y-156847800D01*
X192840600Y-156847800D02*
X190640600Y-156847800D01*
X190640600Y-156847800D02*
X190640600Y-159247800D01*
X192640600Y-155507800D02*
G75*
G03X192640600Y-155507800I-900000J0D01*
G01*
X192840600Y-154307800D02*
X190640600Y-154307800D01*
X190640600Y-154307800D02*
X190640600Y-156707800D01*
X190640600Y-156707800D02*
X192840600Y-156707800D01*
X192840600Y-156707800D02*
X192840600Y-154307800D01*
X200213821Y-140954000D02*
G75*
G03X200213821Y-140954000I-141421J0D01*
G01*
X199772400Y-138954000D02*
X196772400Y-138954000D01*
X196772400Y-138954000D02*
X196772400Y-140954000D01*
X196772400Y-140954000D02*
X199772400Y-140954000D01*
X199772400Y-140954000D02*
X199772400Y-138954000D01*
D13*
X200391200Y-150485800D02*
X200391200Y-150786307D01*
X200391200Y-151575293D02*
X200391200Y-151875800D01*
X199516200Y-150485800D02*
X200391200Y-150485800D01*
X199516200Y-151875800D02*
X200391200Y-151875800D01*
X199516200Y-150485800D02*
X199516200Y-150572524D01*
X199516200Y-151789076D02*
X199516200Y-151875800D01*
X198831200Y-150485800D02*
X198146200Y-150485800D01*
X198146200Y-150485800D02*
X198146200Y-151180800D01*
D11*
X209349600Y-128087600D02*
X209349600Y-128987600D01*
X209349600Y-128987600D02*
X208449600Y-128987600D01*
X204249600Y-128987600D02*
X203349600Y-128987600D01*
X203349600Y-128987600D02*
X203349600Y-128087600D01*
X204449600Y-126187600D02*
X204349600Y-126187600D01*
X208349600Y-126187600D02*
X204449600Y-126187600D01*
D10*
X190100000Y-167140000D02*
X189900000Y-167140000D01*
X189900000Y-167140000D02*
X189900000Y-167840000D01*
X191100000Y-167840000D02*
X191100000Y-167140000D01*
X191100000Y-167140000D02*
X190900000Y-167140000D01*
X195624400Y-151426800D02*
X195824400Y-151426800D01*
X195824400Y-151426800D02*
X195824400Y-150726800D01*
X194624400Y-150726800D02*
X194624400Y-151426800D01*
X194624400Y-151426800D02*
X194824400Y-151426800D01*
X189275600Y-160429000D02*
X189275600Y-160629000D01*
X189275600Y-160629000D02*
X189975600Y-160629000D01*
X189975600Y-159429000D02*
X189275600Y-159429000D01*
X189275600Y-159429000D02*
X189275600Y-159629000D01*
D14*
X194610800Y-145425000D02*
X194610800Y-146675000D01*
X196650800Y-145425000D02*
X196650800Y-146675000D01*
D13*
X194570800Y-144950000D02*
G75*
G03X194570800Y-144950000I-60000J0D01*
G01*
D14*
X194843400Y-162076400D02*
X194843400Y-160826400D01*
X192803400Y-162076400D02*
X192803400Y-160826400D01*
D13*
X195003400Y-162551400D02*
G75*
G03X195003400Y-162551400I-60000J0D01*
G01*
X216626800Y-147153200D02*
X216626800Y-145353200D01*
X219846800Y-145353200D02*
X219846800Y-147803200D01*
X208435000Y-145170200D02*
X208435000Y-143780200D01*
X204315000Y-145170200D02*
X204315000Y-143780200D01*
X207315000Y-143780200D02*
X206435000Y-143780200D01*
X205315000Y-143780200D02*
X204315000Y-143780200D01*
X208435000Y-143780200D02*
X208435000Y-142785200D01*
X208435000Y-143780200D02*
X208435000Y-143780200D01*
X204315000Y-145170200D02*
X204315000Y-145170200D01*
X208435000Y-145170200D02*
X207435000Y-145170200D01*
X208315000Y-145170200D02*
X207435000Y-145170200D01*
X206315000Y-145170200D02*
X205435000Y-145170200D01*
D11*
X190809115Y-163725811D02*
G75*
G03X190809115Y-163725811I-900000J0D01*
G01*
X191293795Y-165086937D02*
X189718102Y-164809100D01*
X189718102Y-164809100D02*
X190100128Y-162642523D01*
X190100128Y-162642523D02*
X191675821Y-162920360D01*
X191675821Y-162920360D02*
X191293795Y-165086937D01*
X193390800Y-151790400D02*
G75*
G03X193390800Y-151790400I-900000J0D01*
G01*
X194090800Y-152890400D02*
X192490800Y-152890400D01*
X192490800Y-152890400D02*
X192490800Y-150690400D01*
X192490800Y-150690400D02*
X194090800Y-150690400D01*
X194090800Y-150690400D02*
X194090800Y-152890400D01*
X193390800Y-146685000D02*
G75*
G03X193390800Y-146685000I-900000J0D01*
G01*
X194090800Y-147785000D02*
X192490800Y-147785000D01*
X192490800Y-147785000D02*
X192490800Y-145585000D01*
X192490800Y-145585000D02*
X194090800Y-145585000D01*
X194090800Y-145585000D02*
X194090800Y-147785000D01*
M02*
